<?xml version="1.0" encoding="utf-8"?>
<svg xmlns="http://www.w3.org/2000/svg"
  xmlns:xlink="http://www.w3.org/1999/xlink">
  <symbol viewBox="0 0 30 30" id="account"
    xmlns="http://www.w3.org/2000/svg">
    <path d="M25.607 4.393A14.9 14.9 0 0 0 15 0C10.993 0 7.226 1.56 4.393 4.393A14.9 14.9 0 0 0 0 15c0 4.007 1.56 7.773 4.393 10.607A14.9 14.9 0 0 0 15 30c4.007 0 7.773-1.56 10.607-4.393A14.9 14.9 0 0 0 30 15c0-4.007-1.56-7.774-4.393-10.607M6.51 25.154c.495-4.262 4.16-7.552 8.49-7.552 2.283 0 4.43.89 6.044 2.504a8.54 8.54 0 0 1 2.446 5.048A13.18 13.18 0 0 1 15 28.242c-3.228 0-6.19-1.161-8.49-3.088M15 15.791a4.56 4.56 0 0 1-4.556-4.555A4.56 4.56 0 0 1 15 6.68a4.56 4.56 0 0 1 4.556 4.556A4.56 4.56 0 0 1 15 15.79m10.003 7.877a10.3 10.3 0 0 0-2.716-4.805 10.3 10.3 0 0 0-3.752-2.399 6.31 6.31 0 0 0 2.779-5.228A6.32 6.32 0 0 0 15 4.922a6.32 6.32 0 0 0-6.314 6.314 6.31 6.31 0 0 0 2.781 5.23 10.3 10.3 0 0 0-3.49 2.141 10.27 10.27 0 0 0-2.981 5.06A13.2 13.2 0 0 1 1.758 15C1.758 7.698 7.698 1.758 15 1.758S28.242 7.698 28.242 15c0 3.312-1.222 6.344-3.239 8.668"/>
  </symbol>
  <symbol viewBox="0 0 12 8" id="arrow-angle-down"
    xmlns="http://www.w3.org/2000/svg">
    <path d="M1.41 0 6 4.58 10.59 0 12 1.41l-6 6-6-6z"/>
  </symbol>
  <symbol viewBox="0 0 27 14" id="arrow-left"
    xmlns="http://www.w3.org/2000/svg">
    <path d="m7.146 0 1.43 1.4-4.71 4.613H27v1.974H3.866l4.71 4.613-1.43 1.4L0 7z"/>
  </symbol>
  <symbol viewBox="0 0 17 30" id="arrow-next"
    xmlns="http://www.w3.org/2000/svg">
    <path d="m0 1.88 13.061 13-13.06 13 1.902 1.88L16.88 14.88 1.903 0z"/>
  </symbol>
  <symbol viewBox="0 0 17 30" id="arrow-prev"
    xmlns="http://www.w3.org/2000/svg">
    <path d="m16.88 1.88-13.06 13 13.06 13-1.902 1.88L0 14.88 14.978 0z"/>
  </symbol>
  <symbol viewBox="0 0 27 14" id="arrow-right"
    xmlns="http://www.w3.org/2000/svg">
    <path d="m19.854 0-1.43 1.4 4.71 4.613H0v1.974h23.134l-4.71 4.613 1.43 1.4L27 7z"/>
  </symbol>
  <symbol viewBox="0 0 14 14" id="arrow-up-right"
    xmlns="http://www.w3.org/2000/svg">
    <path d="M.589.139.56 2.82l8.84-.091L0 12.13 1.871 14l9.4-9.4-.092 8.839 2.682-.028L14 0z"/>
  </symbol>
  <symbol viewBox="0 0 26 29" id="cart"
    xmlns="http://www.w3.org/2000/svg">
    <path d="M5.057 29h15.886C23.732 29 26 26.742 26 23.967V8.923a.897.897 0 0 0-.897-.892h-5.379V6.692C19.724 3.002 16.707 0 13 0S6.276 3.003 6.276 6.692v1.339H.896A.897.897 0 0 0 0 8.923v15.044C0 26.743 2.268 29 5.057 29M8.069 6.692c0-2.708 2.21-4.907 4.931-4.907s4.931 2.2 4.931 4.907v1.339H8.069zM1.793 9.815h4.483v2.231a.897.897 0 0 0 1.793 0v-2.23h9.862v2.23a.897.897 0 0 0 1.793 0v-2.23h4.483v14.151c0 1.79-1.466 3.248-3.264 3.248H5.057c-1.798 0-3.264-1.459-3.264-3.248z"/>
  </symbol>
  <symbol viewBox="0 0 14 14" id="close"
    xmlns="http://www.w3.org/2000/svg">
    <path d="M5.727 7 0 12.727 1.273 14 7 8.273 12.727 14 14 12.727 8.273 7 14 1.273 12.727 0 7 5.727 1.273 0 0 1.273z"/>
  </symbol>
  <symbol viewBox="0 0 24 24" id="cross-big"
    xmlns="http://www.w3.org/2000/svg">
    <path fill-rule="evenodd" d="M10.092 12.213.546 21.76l2.121 2.122 9.546-9.546 9.546 9.546 2.121-2.122-9.545-9.546 9.545-9.546L21.76.546l-9.547 9.546L2.667.546.546 2.667z" clip-rule="evenodd"/>
  </symbol>
  <symbol viewBox="0 0 18 18" id="filter"
    xmlns="http://www.w3.org/2000/svg">
    <path d="M0 14v2h6v-2zM0 2v2h10V2zm10 16v-2h8v-2h-8v-2H8v6zM4 6v2H0v2h4v2h2V6zm14 4V8H8v2zm-6-4h2V4h4V2h-4V0h-2z"/>
  </symbol>
  <symbol viewBox="0 0 30 27" id="heart"
    xmlns="http://www.w3.org/2000/svg">
    <path d="M15 26.69c-.427 0-.839-.154-1.16-.436a347 347 0 0 0-3.411-2.934l-.005-.004c-3.023-2.576-5.633-4.8-7.449-6.991C.945 13.875 0 11.553 0 9.015c0-2.464.845-4.738 2.38-6.403C3.933.928 6.064 0 8.38 0c1.732 0 3.318.547 4.714 1.627A9.6 9.6 0 0 1 15 3.617a9.6 9.6 0 0 1 1.906-1.99C18.302.547 19.888 0 21.62 0c2.316 0 4.447.928 6 2.612C29.155 4.277 30 6.551 30 9.016c0 2.537-.945 4.86-2.975 7.309-1.816 2.191-4.426 4.415-7.448 6.99-1.033.88-2.203 1.878-3.418 2.94A1.76 1.76 0 0 1 15 26.69M8.38 1.757c-1.82 0-3.492.727-4.708 2.046-1.235 1.34-1.915 3.19-1.915 5.213 0 2.134.793 4.042 2.571 6.188 1.719 2.074 4.275 4.252 7.235 6.775l.006.004c1.034.882 2.208 1.882 3.428 2.95a425 425 0 0 1 3.44-2.955c2.96-2.522 5.516-4.7 7.235-6.774 1.778-2.146 2.57-4.054 2.57-6.188 0-2.023-.68-3.874-1.914-5.213-1.216-1.32-2.888-2.046-4.709-2.046-1.333 0-2.557.424-3.638 1.26-.964.745-1.635 1.687-2.028 2.347a1.1 1.1 0 0 1-.953.54 1.1 1.1 0 0 1-.953-.54c-.393-.66-1.064-1.602-2.028-2.347-1.08-.836-2.305-1.26-3.638-1.26"/>
  </symbol>
  <symbol viewBox="0 0 22 20" id="heart-fill"
    xmlns="http://www.w3.org/2000/svg">
    <path d="M11 20c-.313 0-.615-.116-.85-.327-.89-.794-1.746-1.54-2.502-2.198l-.004-.004c-2.216-1.93-4.13-3.596-5.462-5.238C.693 10.397 0 8.657 0 6.756c0-1.847.62-3.551 1.745-4.799A5.86 5.86 0 0 1 6.145 0c1.27 0 2.434.41 3.458 1.22q.776.614 1.397 1.49a7.2 7.2 0 0 1 1.398-1.49C13.42.41 14.584 0 15.854 0c1.7 0 3.262.695 4.4 1.957C21.38 3.205 22 4.91 22 6.756c0 1.901-.693 3.641-2.182 5.477-1.332 1.642-3.245 3.308-5.461 5.238-.758.66-1.616 1.407-2.507 2.203-.235.21-.537.326-.85.326"/>
  </symbol>
  <symbol viewBox="0 0 181 56" id="logo"
    xmlns="http://www.w3.org/2000/svg">
    <path d="M9.84 49.742q-.093.138-.306.782-.062.184-.153.184l-1.253.829-.275-.599a5 5 0 0 1-.458-.23l-1.131-3.865-.275-3.543a6 6 0 0 0 .061-.828q0-1.059-.52-1.749l-2.016.23a.46.46 0 0 0-.122-.23L1.13 39.665q-.03-.184-.275-.552l.488-1.105-.244-.368.428-1.38 1.222-.69 2.842 1.61q.336-.323.703-1.242.122-1.059.122-3.406.06-.23.336-1.334a.8.8 0 0 1 .122-.322l.58-5.89.062-.046q.183-.046.275-.322l.397-2.485q-.092-.184-.03-.276l.275-.322q-.215-1.795-.764-2.163-.091.093-.825.506a1.34 1.34 0 0 1-.642.184l-.061.783q-.734.184-1.375.828-.306.185-.764.966l.244.46.03.645-.366.368-.733.46-1.59.966-.885.414-.55-.552v-.046a1.1 1.1 0 0 0 0-.368A.9.9 0 0 0 0 24.48q.214-1.15.458-2.255a.3.3 0 0 1-.091-.23l.58-.506.856-1.703q.121-.046.52-.46l.06-.552q.397-.046 1.192-.276 1.161-1.104 3.361-3.59l.306.047q.366.045.52-.276l1.038-.783.825-2.438 1.161.138.825-.138q.856-1.013.978-1.013.215 0 .336.276a.3.3 0 0 1-.214-.092q-.183-.138 0-.138.429 0 1.192-.506.979-.645 1.192-.736.672.046 1.528-.552.519-.369 1.375-.736.672-.69 2.26-1.38 1.62-.737 2.293-1.427l2.994-1.013q.214-.091.52-.69l2.994-1.334q.06-.093.153-.276.09 0 1.344.092.734.045 1.497-.276.306 0 .917-.046.641-.046.917-.046 3.361-.046 4.43 2.576v.276q-.03-.138-.244.138l-.122.69q-.03.14-.184.23l-.61 2.025q-.306.323-.917.92-.398.092-1.07.185l.03-.414q0-.276-.152-.553.306-.459.306-1.104 0-.69-.917-1.38a2.03 2.03 0 0 0-1.253-.414h-.214l-.214.046h-.886q-.367 0-.855-.23L28.142 5.89l-1.405.368-.245-.184q-.213.092-.397.46L21.084 9.48l-1.711.46-1.803 1.565q-.795-.046-.642-.046-.153.091-1.833 1.242-1.1.735-1.559 1.703h-.06q-.215-.046-.398.23l-2.23 11.918q-.03.091-.062.092l-.152.23-.52 4.417a5.5 5.5 0 0 1-.611 1.61l.061 3.36.795-.506v-.046q.427.368.916.368.643-.092 1.864-.645.734-.091 2.17-.828 1.467-.781 2.26-.828 2.017-1.013 5.898-3.221.306-.046.886-.46t.917-.415q3.087-1.886 4.98-2.116l4.4-1.795q.307.414.398.967l-.244.552a.4.4 0 0 1-.184.046q-.09.276-.58.874-.306 0-.52.092l-2.322.966a5.7 5.7 0 0 0-2.139 1.565 1 1 0 0 1-.428.184h-.672q-.765.69-2.23 1.288-1.711.69-2.262 1.059-.978 1.013-3.086 1.932-2.292.967-3.147 1.703-.459.552-1.161.414l-1.834.782-4.461 1.657-.367 1.288.978 2.163.764 1.749-.336 2.162q.122.323.214.506l.091.138q-.03.416.092 1.38-.245.6-.642.599-.795 0-.733-.092M44.782 33.82q.214-1.149.122-1.38l.49-1.104.305-1.702q-.123-2.164-1.192-3.037-.06-.185-.122-.23l-1.222.46q-.215.23-.459.184l-.825 1.104q-.153.138-.244.138l-1.406 2.761q-.58.736-.794 1.196-1.192 2.531-1.375 3.13l-1.284 4.095q-.336 2.346-.58 3.497-.03.322-.03.598 0 .46.09.874l.093 1.979q.09.367.458.276.825-.185 1.62-.92.396-.369 1.344-1.519l.611-1.012.55-.874q0-.185.458-.737l.367-.874q.123.046.214-.092.336-.875.978-1.748.672-1.934 1.039-2.715a1.7 1.7 0 0 1 .244-.23zm6.722 18.683q-.458-.046-.855-.092l-1.07-.782q-.915-.185-1.1-.507-.763-.46-1.588-1.84a97 97 0 0 0-1.345-2.209l-.275-1.702-.458-1.197-.275-1.84a1.4 1.4 0 0 1 0-.415l-.03-.46a1.4 1.4 0 0 1-.154-.414q-.213.414-.397.644-.336.645-.611 1.059l-.52 1.012-.397.828a3.4 3.4 0 0 0-.458.506q-.306.69-.55.92 0 .231-.306.369l-.916 1.38-.856 1.197q-.855.414-1.314.69-1.467.875-3.117.506-.824-.46-1.1-2.715-.09-.735-.091-1.334l.091-1.519.673-4.693q0-.322.275-1.427a57 57 0 0 1 .947-3.497l.642-1.426.641-1.657.947-1.84 1.1-1.565.978-1.61q.245-.23.428-.46l.703-1.335 1.161-1.104q.52-.23.794-.46 1.803-.322 2.262-.322h.336l.366.046q.887.09 1.742 1.288.183.46.122 1.334.03.46.092.69l-.061.92v2.117l-.153 1.657q.123.645-.336 2.669.06.23.092.414l-.428 1.84q-.123.139-.153.599-.153 2.439-.153 2.669 0 .367-.091 1.15-.092.736-.092 1.104l.397 2.393 1.1 2.623 1.59 2.3 1.802 1.52.275.551q0 .414.061.645-.03.23-.183.322a1.1 1.1 0 0 0-.184.46m4.716-2.071a47 47 0 0 0-1.253 1.519l-1.62 1.564q0 .046-.122.23l-.458.23H52.4q-.09.046-.183-.092l-.092-.092-.091-1.748.427-1.059 1.223-1.426.214-.46a8 8 0 0 0 .519-.414l1.13-1.427a5.6 5.6 0 0 0 .948-1.61q.886-.829 1.008-1.289l.459-.552q.397-.782.397-.506l.947-1.012a1.1 1.1 0 0 1 .183-.414l.886-1.841-2.75-.828-.977-.737q-.734 0-.978-.552l-1.925-.92a.45.45 0 0 1-.092-.23L52.4 35.8l-.366-1.105-.49-.598-.335-1.104-.092-1.565.275-1.656.336-.69q.488-1.013.764-1.381l1.894-2.623a.6.6 0 0 0 .336-.184l.642-.552.795-.414.641-.414.428-.23q.55.045 1.039-.46l2.811-.921 2.23-.322.276-.46.458-.276q1.039 1.288.917 2.623-.519.781-.703 1.242-.06.092-.214.092a1.1 1.1 0 0 0-.183.276l-1.1.276-1.253-.23a6 6 0 0 0-1.07-.092l-.458.23q-.275-.091-.397.138l-1.528.598q-.06.093-.52.46a1.6 1.6 0 0 0-.366.369q-.917.321-1.253 1.012l-.336.092-1.344 1.887-.245.828q.06.091 0 .69l.153 1.197.855 1.334q1.742 1.104 2.078 1.104 3.484.783 3.361.783l.459-.046 1.955.506q.612.69.856 1.196.03.184.03.414 0 .414-.213 1.335-.214.874-.245 1.242-.397.782-.55 1.196l-.428.645q-.213.459-.366.552l-1.192 1.472q-.49.875-.458 1.15-.55.6-.978 1.013l-.642.828q.092.045-.55.69l-.489.737-.886 1.196q-.244.552-.52.552M78.24 31.06q.213-1.012.244-1.104l.153-.875q.213-.23.214-1.012a2.7 2.7 0 0 0-.153-.828q-.183-.093-.947.874a6 6 0 0 0-1.314 1.657q-.916 1.15-1.039 1.886-.367.323-.428.414-.428 1.104-.794 1.105l-.886 1.794a4.4 4.4 0 0 0-.887 1.059q-.641 1.702-1.038 2.392a1.5 1.5 0 0 1-.184.184l-.336.737q-.06 0-.153.276-.09.23-.214.23-.55 1.058-.977 1.932-.52.323-.917 1.473-.489 1.38-.672 1.61l-.245 1.335-.275.736-.489.69-.336.553-.855.414q-.092.092-.612.092-.275 0-.641-.414a.8.8 0 0 1-.061-.323l-.245-.46q-.122-.69-.091-.874.03-.092.03-1.104 0-.414.214-.829.214-.874.275-1.012l.794-4.187.703-3.313q.276-1.289.275-1.519l1.314-6.258q0-.23.153-.782.183-.599.183-.828.184-.83.948-3.82.61-2.392.794-3.865.948-3.405 1.1-5.476.428-1.472.397-1.794.153-.599.184-.92l.091-1.105.184-.69.183-1.104a7.6 7.6 0 0 0 .397-2.485q0-.414-.03-.875.274-2.116.55-2.576l.06-.553.062-1.058q.642-.46 1.13-.46.43 0 .581.46l.672.184q.214.414.214.92 0 .185-.183 1.15-.183.967-.153 1.06a.17.17 0 0 1-.03-.093q-.062.046-.062 1.15l-.336 2.025q.061.645-.153 1.243l-.122.874-.61 3.313a.7.7 0 0 0-.154.23l-1.405 6.856q-.275.69-.58 2.393-.306 1.703-.642 2.439-1.406 6.35-1.559 7.132-.672 3.45-.947 4.372a56 56 0 0 0-.183 2.254q.03.69.152.69.061 0 .184-.046l.641-1.058.49-.736q.12-.369.213-.506l.306-.276.794-1.565.336-.23.795-1.657 1.1-1.564q.214-.276.366-.598.245-.737 1.07-1.84.825-1.152 1.07-1.933l1.619-2.21q.306-.597.58-.92 1.284-1.012 1.559-1.426.092-.138.183-.138l.947.23.306.23.764 2.485q.06.599.061 1.334.061 2.624-.52 5.522a23.2 23.2 0 0 0-1.313 4.924q-.153.367-.337 1.518-.152 1.105-.366 1.519l-.52 3.405-.244 3.175q.091.184.153.322l.122 1.795v.874l.275.966.764 1.335q-.214.506-.275.644l-1.772.966q-.49-.414-.581-.644-.336-.552-.55-.69l-.367-.553q-.336-.505-.336-.69l-.305-2.577q-.184-.23-.184-.598 0-.414.214-.966-.121-.414.03-1.334.092-.6.062-.737l.183-1.15.092-1.288a8 8 0 0 0 .122-.783l.459-2.715q.183-.598.305-.782 0-.781.275-1.978.398-1.704.428-1.933.183-1.012.336-1.703.153-.276.153-1.012m15.075-21.029-.183.69-1.345 1.703q-.122.23-.275.506a1.2 1.2 0 0 1-.428.092l-1.65-1.84-.855-1.887.03-1.334.764-.737.214-.552.917-.23 1.71.874.856 2.393q.153.23.245.322m-9.35 28.161.06.046 2.11-6.672q.03-.138.64-1.748l.306-1.197q.061-.183.123-.414l.06-.23v-.046q.673-1.289.52-2.393.092-.183.122-.506a.5.5 0 0 1 .123-.184l.183-.782q0-.045.03-.184l.031-.276q.061-.415.122-.46l.825-.967q.122 0 .734.138l.397-.23.672.414.49 2.117.152.23-.214.644-.306.506-.702 1.841-.886 1.979a.6.6 0 0 0-.276.276q-.274 1.334-.397 1.564l-.58 1.243q-.367.781-.428 1.288-1.986 5.844-2.139 7.408l-.336 1.657-.856 3.727-.214 2.853-.427.92-.459.092-.825.507q-.397-.184-.458-.645l-.458-.506q-.092-.138-.153-.644a49 49 0 0 0 .275-2.393l.855-3.82q.061-.275.367-1.195.06-.184.122-.507 0-.092.092-.23l.58-2.853a.9.9 0 0 1 .123-.368m21.946-2.3q.03-.369 0-.967-.03-.736-.214-1.15l-.642-1.887-.275-1.058q-.213-.138-.366-.552l-1.528-1.243a.5.5 0 0 1-.061-.276l-1.711-.552q-.061-.092-.337-.092-.397 0-1.222.184-.06.138-.153.138-.09 0-.183-.092-.091.046-.489.046-.365.368-1.1 1.197l-.336.782q-.092.138-.672 1.518-.765 1.796-.947 2.853 0 .323-.031.414-.428.829-.55 1.335-.183 1.15-.122 1.242l-.397.828q-.03.277-.55 2.715.304 3.405 1.833 4.418 1.833.69 1.956.644.55-.046 1.222-.368l.794-.23.52-.645 1.1-.782 1.803-1.932q.305-.874.886-1.243l.58-1.426.367-1.013.214-.782.397-1.15q.183-.369.214-.874m1.528 1.794-.489 1.887-.978 2.162-.397.783a3.4 3.4 0 0 1-.367.92l-.855 1.426-1.009 1.105q-.091.323-.214.414l-.825.782-1.222 1.105q-.122.23-.183.322-1.498.828-2.2 1.334-1.375.414-1.773.414l-1.07-.46-.855-.276-.61-.368q-1.1-.322-2.017-2.393-.061-.46-.52-2.07-.366-1.29-.336-2.163-.06-.46.03-1.105.123-.782-.03-1.15l1.497-5.43a3 3 0 0 0 .183-.368q.03-.139.123-.322l.275-1.15.183-.46q1.07-2.118 2.322-5.614.214-.138.245-.23l.794-1.887a.6.6 0 0 0 .275-.276q.459-1.335 1.07-1.61.672-.599.977-.829h.581q.184.46.733 1.013l.214.506-.061 1.058 1.345.46a.4.4 0 0 1 .183-.046l2.689 1.38q.336.83.642.967.55 0 .855.92.581.46.703.874l.55 1.657q-.061.367.031 1.104.03.184.122.783.061.414-.031.552.061 1.702.031 1.84-.062.369-.611 2.44m1.363 9.938q-.03-.552.061-.782l.092-.736q.153-1.15.122-1.243l.183-.69.061-1.656q.092-.552.245-1.013l.58-3.773.337-2.3.397-2.531.366-.829.123-2.945.183-1.058q0-.827.061-1.196l.336-3.451.642-.093q.091 0 .367-.23.275-.276.427-.276 1.346.69 1.956 2.255l-.031.506q-.336.966-.427 1.105-.184.828-.245 1.058.061.414-.428 1.334 0 .553-.275 1.749-.244 1.197-.214 1.794-.121.415-.183.46l-.519 3.176q.091.598-.275 1.15 0 1.288-.428 3.175-.183.828-.153 1.472l.367.277 2.23-2.531 1.345-1.565q.121-.276.153-.414l.427-.414q.49-1.104 1.039-1.334a598 598 0 0 1 2.048-2.761l.275-.368.489-.553h.183l1.314-1.196 2.903-1.426q1.038.137 1.161.368l.611.506q.763 1.15 1.008 2.024.122.415.428 2.393.214.921.183 2.853-.03 1.933.123 2.761l-.153.966q.092.323.153.414a141 141 0 0 1-.123 2.255q.276 2.76.306 3.681l.03.967.245 1.978.733 2.21.489.597.245 1.243-.306.598q-.367.23-.55.23l-.122.138-2.078-.552a6 6 0 0 0-.183-.552l-.611-2.21-.52-1.196-.061-1.564-.244-1.887-.092-1.288q-.153-2.025-.153-2.07 0-.506.092-1.013-.092-.644 0-1.887.092-1.196-.031-1.886-.428-4.05-.764-4.786-.213-.966-1.008-.966-.855.414-1.314.506-.978 1.012-1.467 1.38l-1.436 1.565q-.061.322-.091.46l-.856.828q-.916.875-1.65 2.255-.397.184-1.07 1.197-.641.966-1.038 1.15l-.184.552-1.589 1.795-1.1 1.38-.55.368-.947 1.15-.153.23-.794-.183zm56.871-12.792q-.428 0-.55.875-.336.828-.459 1.058a2.4 2.4 0 0 1-.763.644q-.306.735-1.162 1.565-1.008.92-1.283 1.38-.428.506-1.253 1.196-.336.138-.58.599l-.123.23q-.183.275-.397.23l-.489.69-.58.368q-.091-.092-.459.552-.367.598-.427.598-.123.276-.703.507l-.55 1.242q1.192 1.38 1.192 3.129 0 .276-.031.644-.275.092-1.131 1.38-.122 0-.305-.23l-1.497.369a4.5 4.5 0 0 0-.275.598q-.093.046-.245.138l-1.528-1.979q-.64-.184-1.619 1.335L145.75 56l-1.253-.92.367-2.44 2.689-1.61.489-.644q.275-.138.58-.414l.031-.138.825-.322q.58-1.335.917-1.38l.611-1.059q.184 0 .58-.69.398-.736.428-1.058l-.244-3.175-.275-.23q-.397.045-1.131-1.059l-.305-1.794v-.46a4 4 0 0 0-.031-.507l.031-.092a20 20 0 0 1-.123-1.61q.031-.138-.214-2.44.153-.229.153-.597l-.214-1.657-.519-1.702-.245-2.347a4 4 0 0 0-.244-.322l-.275-4.464-.275-.598.122-1.104-.366-.552.183-1.335a1.9 1.9 0 0 0-.214-.506l.153-2.3q.122-.23.122-1.52 0-.459-.122-1.011.03-1.38.672-4.28.733-3.313 1.253-3.359.153-.045.397-.23l.856-1.38q.672-1.059 2.23-1.933l2.506-1.38.03.045q.398.277.917.092.428-.138.581-.138l1.741.092 1.253.323 1.345.644 1.558 1.472.947.414 1.956 1.059 1.344 1.564a.9.9 0 0 1 .275-.138q.428.829.489.92.336.507.672.553l1.253 1.564q1.345 1.656 1.498 4.878.336.23.519 2.438-.03.599-.031 1.243a2.7 2.7 0 0 0-.183.644q.03.276.122.69l-.091 1.979q.06.138-.061.644l-.123.552-.366.92-.428 2.163-1.467 2.67a4 4 0 0 0-.367.551l-.061.553q-.366.183-1.68 2.484l-.825 1.427-1.009 1.15zm2.933-17.9-.244-.69q-.031-.23.061-.828l-.55-1.564-1.008-2.21a9 9 0 0 1-1.039-1.196q-.398-.184-3.27-2.346-1.712-1.29-4.278-1.841l-2.322-.506q-1.68.69-1.742.736a3.44 3.44 0 0 0-1.558 1.289l-.245.184q-.122.736-.458 1.196l-.214.276a4 4 0 0 0-.336.506v.644l-.397.829q0 .506.366 1.058l1.192-.276q.031 0 .092.092.367.782 1.069 1.795.061.183.123.552l-.489 4.463.366 1.657q-.458 1.886-.183 6.258.244 4.05-.489 5.89l.55 3.129.214.092q0 .138.092.828.06.46 0 1.15.091.184.366 2.07l.764 2.578q.062.598.275.598.154 0 .397-.322l1.956-2.07 1.497-1.473q.031-.23.336-.599.184-.09.52-.276.336-.645.794-1.012l.184-.874q.244-.139.58-.322.092-.323.214-.645l1.467-1.518q.274-.69.336-.828.244-.414.55-.506l1.711-2.945q.061-.185.245-.645l.886-2.208 1.039-2.163.397-.92.458-.875v-3.313l-.275-1.61zM181 10.031l-.183.69-1.345 1.703q-.122.23-.275.506a1.2 1.2 0 0 1-.428.092l-1.65-1.84-.855-1.887.03-1.334.764-.737.214-.552.917-.23 1.711.874.856 2.393q.152.23.244.322m-9.35 28.161.061.046 2.108-6.672q.032-.138.642-1.748l.306-1.197q.06-.183.122-.414l.061-.23v-.046q.672-1.289.519-2.393.091-.183.123-.506a.5.5 0 0 1 .122-.184l.183-.782q0-.045.031-.184l.03-.276q.062-.415.122-.46l.825-.967q.123 0 .734.138l.397-.23.672.414.489 2.117.153.23-.214.644-.306.506-.702 1.841-.886 1.979a.6.6 0 0 0-.275.276q-.275 1.334-.398 1.564l-.58 1.243q-.367.781-.428 1.288-1.986 5.844-2.139 7.408l-.336 1.657-.856 3.727-.214 2.853-.427.92-.459.092-.825.507q-.397-.184-.458-.645l-.458-.506q-.092-.138-.153-.644.213-1.61.275-2.393l.855-3.82q.061-.275.367-1.195.062-.184.122-.507a.45.45 0 0 1 .092-.23l.581-2.853a.9.9 0 0 1 .122-.368"/>
  </symbol>
  <symbol viewBox="0 0 30 30" id="phone"
    xmlns="http://www.w3.org/2000/svg">
    <path d="M23.71 18.584c-.615-.64-1.356-.982-2.14-.982-.78 0-1.527.336-2.166.976l-2.001 1.994c-.165-.089-.33-.17-.488-.253a8 8 0 0 1-.626-.336c-1.875-1.19-3.578-2.741-5.211-4.748-.792-1-1.324-1.843-1.71-2.698.52-.475 1-.969 1.469-1.444.177-.177.355-.36.532-.538 1.33-1.33 1.33-3.052 0-4.381L9.64 4.445c-.196-.196-.399-.399-.589-.601a29 29 0 0 0-1.19-1.178c-.614-.608-1.349-.93-2.121-.93s-1.52.322-2.153.93l-.012.013L1.422 4.85A4.63 4.63 0 0 0 .048 7.795c-.152 1.849.392 3.57.81 4.698 1.026 2.767 2.558 5.331 4.844 8.08 2.773 3.31 6.11 5.926 9.922 7.768 1.456.69 3.4 1.507 5.572 1.646.133.007.272.013.399.013 1.462 0 2.69-.526 3.653-1.57.006-.013.019-.02.025-.032.33-.399.71-.76 1.108-1.146.273-.26.551-.532.823-.817.627-.652.957-1.412.957-2.19 0-.786-.336-1.54-.976-2.172zm2.266 6.667c-.006 0-.006.007 0 0-.247.266-.5.507-.772.773-.412.392-.83.804-1.222 1.266-.64.684-1.393 1.007-2.381 1.007-.095 0-.196 0-.291-.007-1.88-.12-3.628-.854-4.94-1.481-3.583-1.735-6.73-4.198-9.345-7.32-2.159-2.602-3.602-5.008-4.559-7.591-.588-1.577-.804-2.805-.709-3.964.064-.74.349-1.355.874-1.88l2.16-2.16c.31-.29.639-.45.962-.45.399 0 .721.241.924.444l.02.019c.385.36.753.735 1.139 1.133l.601.615 1.729 1.728c.671.671.671 1.292 0 1.963-.184.184-.361.367-.545.544a33 33 0 0 1-1.589 1.545c-.013.013-.025.02-.032.032-.544.545-.443 1.076-.329 1.437l.02.057c.449 1.09 1.082 2.115 2.044 3.337l.007.007c1.747 2.152 3.59 3.83 5.622 5.116.26.164.526.297.779.424.228.114.443.221.627.335.025.013.05.032.076.045.215.107.418.158.627.158.525 0 .854-.33.962-.437l2.166-2.165c.215-.216.557-.475.956-.475.392 0 .715.247.911.462l.013.013 3.489 3.488c.652.646.652 1.311.006 1.982M16.213 7.136a8.03 8.03 0 0 1 4.368 2.267 8.07 8.07 0 0 1 2.267 4.369.85.85 0 0 0 .842.709.856.856 0 0 0 .848-1 9.77 9.77 0 0 0-2.74-5.287 9.77 9.77 0 0 0-5.288-2.742.86.86 0 0 0-.988.696.846.846 0 0 0 .69.988m13.752 6.098a16.07 16.07 0 0 0-4.514-8.706A16.07 16.07 0 0 0 16.744.013a.85.85 0 0 0-.98.697.86.86 0 0 0 .702.987c2.95.5 5.641 1.9 7.782 4.034a14.34 14.34 0 0 1 4.033 7.781c.07.418.43.71.842.71.05 0 .095-.007.146-.013a.84.84 0 0 0 .696-.975"/>
  </symbol>
  <symbol viewBox="0 0 26 26" id="search"
    xmlns="http://www.w3.org/2000/svg">
    <path d="m25.682 24.15-7.393-7.393a10.24 10.24 0 0 0 2.294-6.465C20.583 4.617 15.966 0 10.292 0S0 4.617 0 10.292s4.617 10.291 10.292 10.291c2.448 0 4.696-.862 6.465-2.294l7.393 7.394a1.08 1.08 0 0 0 1.532 0 1.08 1.08 0 0 0 0-1.532m-15.39-5.733c-4.481 0-8.125-3.645-8.125-8.125s3.644-8.125 8.125-8.125 8.124 3.644 8.124 8.125-3.644 8.125-8.124 8.125"/>
  </symbol>
  <symbol viewBox="0 0 16 14" id="telegram"
    xmlns="http://www.w3.org/2000/svg">
    <path fill-rule="evenodd" d="M1.1 6.027q6.443-2.963 8.592-3.908C13.783.323 14.634.01 15.188 0c.121-.002.394.03.57.181.15.128.19.3.21.421s.044.397.025.613c-.222 2.46-1.181 8.428-1.67 11.183-.206 1.166-.613 1.557-1.006 1.595-.856.083-1.505-.597-2.334-1.17-1.297-.898-2.03-1.457-3.288-2.332-1.455-1.012-.512-1.569.317-2.478.217-.238 3.987-3.858 4.06-4.186.01-.041.018-.195-.069-.275-.086-.081-.213-.054-.305-.032q-.195.047-6.214 4.337-.881.64-1.598.623c-.526-.012-1.538-.314-2.29-.572C.673 7.592-.06 7.424.004 6.886q.05-.42 1.096-.86" clip-rule="evenodd"/>
  </symbol>
  <symbol viewBox="0 0 30 30" id="whatsapp"
    xmlns="http://www.w3.org/2000/svg">
    <path fill-rule="evenodd" d="M15.063 0a14.88 14.88 0 0 1 10.566 4.36A14.74 14.74 0 0 1 30 14.877c-.003 8.196-6.705 14.865-14.937 14.865h-.006c-2.5 0-4.957-.625-7.138-1.81L0 30l2.12-7.703a14.8 14.8 0 0 1-1.995-7.432C.13 6.669 6.83 0 15.063 0m6.81 17.978c-.373-.186-2.208-1.084-2.55-1.209-.343-.123-.592-.185-.84.187-.25.371-.964 1.208-1.182 1.456s-.435.279-.809.093q-.091-.044-.246-.11a9.7 9.7 0 0 1-2.755-1.734c-1.11-.985-1.859-2.201-2.076-2.573-.195-.333-.043-.514.11-.695l.053-.063c.404-.5.809-1.023.933-1.27.125-.248.062-.466-.031-.651a81 81 0 0 1-.74-1.768l-.41-.99c-.268-.64-.54-.638-.757-.637l-.084-.001c-.217-.01-.466-.013-.715-.013s-.653.093-.995.465l-.073.078c-.389.413-1.233 1.31-1.233 3.02 0 1.818 1.322 3.575 1.52 3.839l.004.004.065.092c.446.637 2.811 4.013 6.31 5.517.891.383 1.586.611 2.128.782.895.283 1.708.243 2.351.147.717-.106 2.208-.898 2.52-1.766.31-.868.31-1.611.217-1.766-.075-.125-.25-.21-.51-.334z" clip-rule="evenodd"/>
  </symbol>
  <symbol viewBox="0 0 20 20" id="whatsapp-light"
    xmlns="http://www.w3.org/2000/svg">
    <mask id="ra">
      <path fill-rule="evenodd" d="M10.042 0a9.92 9.92 0 0 1 7.044 2.907A9.83 9.83 0 0 1 20 9.917c-.002 5.465-4.47 9.911-9.958 9.911h-.004a10 10 0 0 1-4.759-1.206L0 20l1.413-5.135A9.86 9.86 0 0 1 .083 9.91C.087 4.446 4.554 0 10.043 0m4.54 11.985c-.249-.124-1.472-.723-1.7-.805s-.394-.124-.56.124-.643.805-.788.97c-.145.166-.29.187-.54.063a4 4 0 0 0-.163-.074 6.4 6.4 0 0 1-1.837-1.156c-.74-.656-1.24-1.467-1.384-1.715-.13-.222-.028-.342.074-.463l.035-.042c.27-.333.539-.682.622-.847.083-.166.041-.31-.021-.434-.042-.083-.28-.659-.494-1.179l-.273-.66c-.179-.426-.36-.425-.504-.424l-.056-.001a10 10 0 0 0-.477-.009.92.92 0 0 0-.663.31l-.05.052c-.258.276-.821.873-.821 2.014 0 1.212.881 2.383 1.014 2.559l.002.003.043.061c.298.425 1.875 2.675 4.207 3.678a14 14 0 0 0 1.419.521c.596.189 1.138.162 1.567.099.478-.072 1.472-.6 1.68-1.178s.207-1.074.145-1.178c-.05-.082-.167-.139-.34-.222z" clip-rule="evenodd"/>
    </mask>
    <path d="m17.086 2.907-.706.708zM10.042 0v-1zM20 9.918h-1zm-9.962 9.91v1zm-4.759-1.206.477-.879-.347-.189-.383.1zM0 20l-.964-.265-.46 1.67 1.677-.437zm1.413-5.135.964.265.111-.405-.21-.362zM.083 9.91h1zm12.799 1.27.34-.94zm1.7.805.446-.895zm-2.26-.681.83.556h.001zm-.788.97-.751-.66zm-.54.063.447-.896zm-.163-.074-.397.918zm-1.837-1.156-.664.748zM7.61 9.392l-.864.505zm.074-.463-.764-.646zm.035-.042.777.63v-.001zm.622-.847-.894-.45zm-.021-.434-.894.448v.001zm-.494-1.179-.924.382zm-.273-.66.923-.386zm-.504-.424-.006-1zm-.056-.001-.05.999zm-1.14.301.736.677zm-.05.052-.727-.685zm.193 4.573-.8.601zm.002.003.799-.601zm.043.061-.819.574zm4.207 3.678.396-.919zm1.419.521.301-.953zm1.567.099.147.989zm1.68-1.178.94.338h.001zm.145-1.178-.857.516zm-.34-.222-.434.901zm3.073-9.854A10.92 10.92 0 0 0 10.042-1v2c2.4.001 4.646.929 6.338 2.615zM21 9.918a10.83 10.83 0 0 0-3.208-7.72L16.38 3.615A8.83 8.83 0 0 1 19 9.917zm-10.958 10.91c6.036 0 10.956-4.89 10.958-10.91h-2c-.002 4.907-4.018 8.91-8.958 8.91zm-.004 0h.004v-2h-.004zm-5.236-1.327a11 11 0 0 0 5.236 1.327v-2c-1.5 0-2.974-.375-4.282-1.085zm-4.55 1.467 5.28-1.379-.506-1.935-5.279 1.378zm.197-6.369-1.413 5.136 1.928.53 1.413-5.135zM-.916 9.91a10.86 10.86 0 0 0 1.464 5.457l1.73-1.003A8.86 8.86 0 0 1 1.084 9.91zM10.042-1C4.005-1-.914 3.889-.916 9.91h2C1.085 5.002 5.1 1 10.042 1zm2.499 13.12c-.006-.002.012.004.066.028l.182.083a82 82 0 0 1 1.347.65l.892-1.79a72 72 0 0 0-.871-.425 15 15 0 0 0-.934-.426zm.612-.26a.5.5 0 0 1-.132.127.7.7 0 0 1-.33.124.6.6 0 0 1-.195-.007c-.013-.003-.008-.003.045.016l.681-1.88c-.084-.031-.398-.157-.757-.116-.469.054-.783.338-.974.624zm-.868 1.075c.134-.153.658-.762.868-1.075l-1.662-1.113c-.05.076-.18.24-.341.436-.152.183-.301.356-.367.431zm-1.736.297c.19.094.501.22.874.175.414-.05.694-.28.862-.473l-1.502-1.32a.65.65 0 0 1 .4-.193c.202-.024.316.05.258.02zm-.115-.051.115.05.892-1.79c-.071-.035-.156-.071-.214-.096zM8.33 11.855a7.4 7.4 0 0 0 2.104 1.326l.793-1.836a5.5 5.5 0 0 1-1.57-.985zM6.747 9.898c.162.276.724 1.195 1.583 1.957l1.328-1.495C9.037 9.808 8.6 9.106 8.472 8.886zm.173-1.615c-.022.027-.226.244-.318.551-.118.393-.03.766.144 1.063l1.727-1.01c.015.027.05.094.066.197a.74.74 0 0 1-.105.504c-.01.016-.018.024.013-.013zm.022-.026-.022.026 1.527 1.292.049-.059zm.505-.666c.008-.015.003-.004-.03.045q-.045.066-.119.167c-.1.134-.225.293-.357.455l1.555 1.258c.138-.171.283-.353.405-.518.108-.145.247-.338.333-.51zm-.02.464c.004.008-.026-.046-.036-.14a.6.6 0 0 1 .056-.324l1.787.897c.29-.575.104-1.083-.02-1.331zm-.525-1.246c.2.483.46 1.118.524 1.245l1.788-.896-.039-.09-.114-.272-.31-.75zm-.272-.656.272.656 1.849-.763-.275-.665zm.425.19c.075 0-.11.015-.292-.098-.166-.102-.183-.212-.132-.092l1.844-.772c-.128-.306-.324-.629-.661-.837-.354-.218-.702-.202-.771-.201zm-.111-.002c.05.002.097.002.11.002l-.011-2h-.015.014zm-.428-.008c.164 0 .309.002.427.008l.1-1.998a12 12 0 0 0-.527-.01zm.073-.013.002-.002-.013.006-.021.006-.04.003v-2c-.394 0-.95.144-1.4.633zm-.057.06.057-.06-1.472-1.354-.041.044zm-.55 1.33c0-.751.343-1.109.55-1.33L5.076 5.01c-.311.33-1.094 1.168-1.094 2.7zm.813 1.956a5 5 0 0 1-.464-.742c-.205-.402-.35-.834-.35-1.215h-2c0 .831.297 1.59.567 2.12.276.545.57.937.649 1.04zm.002.003-.002-.003-1.598 1.203.002.003zm.063.09-.063-.09-1.598 1.203-.005-.007.004.007.024.034zm3.783 3.332c-2.045-.88-3.482-2.903-3.783-3.333l-1.638 1.148c.295.42 2.012 2.897 4.632 4.022zm1.325.487a13 13 0 0 1-1.325-.487l-.79 1.837c.638.275 1.137.438 1.513.557zm1.119.062c-.346.052-.72.064-1.119-.062l-.603 1.907c.795.251 1.505.21 2.016.134zm.885-.526c.014-.039.017-.017-.054.055-.065.066-.16.142-.28.219a2.4 2.4 0 0 1-.495.238q-.058.017-.056.014l.294 1.979c.426-.064.928-.287 1.332-.545.38-.242.922-.67 1.142-1.284zm.23-.323a1 1 0 0 1-.099-.24l-.008-.052v.027q0 .027-.004.073c-.01.124-.044.309-.119.516l1.883.674c.133-.37.203-.724.229-1.018a2.6 2.6 0 0 0 .004-.429 1.34 1.34 0 0 0-.173-.584zm.083.162.1.05.029.014c-.003-.002-.03-.018-.067-.05a.8.8 0 0 1-.146-.178l1.715-1.03a1.34 1.34 0 0 0-.46-.45c-.11-.066-.233-.124-.304-.158zm-.15-.073.15.073.867-1.802-.124-.06z" mask="url(#ra)"/>
  </symbol>
</svg>