<svg width="20" height="20" viewBox="0 0 20 20" fill="none" xmlns="http://www.w3.org/2000/svg">
<mask id="path-1-inside-1_101_1329" fill="white">
<path fill-rule="evenodd" clip-rule="evenodd" d="M10.0418 0C12.7056 0.00109375 15.206 1.03322 17.0861 2.9065C18.9663 4.77969 20.0011 7.26953 20 9.91772C19.9979 15.3821 15.5303 19.8281 10.042 19.8281H10.0378C8.37125 19.8276 6.73363 19.4115 5.27905 18.6218L0 20L1.41273 14.8645C0.541247 13.3616 0.0827711 11.6565 0.0835247 9.90978C0.0857228 4.44569 4.55291 0 10.0418 0ZM14.5819 11.9853C14.3331 11.8613 13.1097 11.2624 12.8816 11.1797C12.6537 11.097 12.4876 11.0558 12.3219 11.3037C12.1559 11.5515 11.6791 12.1093 11.5339 12.2745C11.3887 12.4398 11.2437 12.4605 10.9948 12.3365C10.9542 12.3163 10.8989 12.2924 10.8306 12.2629C10.4804 12.1117 9.78918 11.8133 8.99383 11.1074C8.25419 10.4508 7.75487 9.63984 7.60964 9.39206C7.47979 9.16988 7.58154 9.04955 7.68351 8.92896C7.69539 8.91492 7.70727 8.90087 7.71879 8.88666C7.98814 8.55378 8.25787 8.20478 8.34079 8.03963C8.42382 7.87431 8.38224 7.72969 8.31995 7.60578C8.27831 7.52268 8.04077 6.94704 7.82629 6.42729C7.72098 6.17209 7.62123 5.93036 7.55296 5.76703C7.37443 5.3407 7.19366 5.34178 7.04858 5.34265C7.02941 5.34277 7.01087 5.34288 6.99303 5.342C6.84806 5.33478 6.68211 5.33331 6.51616 5.33331C6.3503 5.33331 6.0807 5.39519 5.85257 5.64325C5.83793 5.65917 5.82158 5.67654 5.8038 5.69543C5.54466 5.97067 4.98184 6.56846 4.98184 7.70906C4.98184 8.92094 5.86321 10.0919 5.99558 10.2677L5.9978 10.2707C6.00593 10.2815 6.02049 10.3023 6.0413 10.332C6.33895 10.7568 7.91555 13.0073 10.2484 14.0097C10.842 14.2651 11.3054 14.4173 11.6669 14.5314C12.263 14.7199 12.8053 14.6933 13.2341 14.6296C13.7122 14.5584 14.7061 14.0305 14.9136 13.4521C15.1209 12.8736 15.1209 12.3779 15.0586 12.2745C15.0087 12.1915 14.8917 12.1352 14.7186 12.0519C14.6763 12.0316 14.6307 12.0096 14.5819 11.9853Z"/>
</mask>
<path d="M17.0861 2.9065L16.3802 3.61489L16.3803 3.61493L17.0861 2.9065ZM10.0418 0L10.0422 -1H10.0418V0ZM20 9.91772L19 9.91729V9.91734L20 9.91772ZM10.0378 19.8281L10.0375 20.8281H10.0378V19.8281ZM5.27905 18.6218L5.75616 17.743L5.40884 17.5544L5.02644 17.6542L5.27905 18.6218ZM0 20L-0.964183 19.7348L-1.42371 21.4052L0.252601 20.9676L0 20ZM1.41273 14.8645L2.37691 15.1297L2.48811 14.7255L2.27782 14.3629L1.41273 14.8645ZM0.0835247 9.90978L1.08352 9.91021V9.91018L0.0835247 9.90978ZM12.8816 11.1797L13.2225 10.2396L13.2225 10.2396L12.8816 11.1797ZM14.5819 11.9853L15.0281 11.0904L15.028 11.0903L14.5819 11.9853ZM12.3219 11.3037L13.1528 11.8601L13.1532 11.8595L12.3219 11.3037ZM11.5339 12.2745L10.783 11.6141L10.7826 11.6145L11.5339 12.2745ZM10.9948 12.3365L11.4408 11.4414L11.4406 11.4413L10.9948 12.3365ZM10.8306 12.2629L10.4343 13.181L10.4343 13.181L10.8306 12.2629ZM8.99383 11.1074L8.32993 11.8552L8.33 11.8553L8.99383 11.1074ZM7.60964 9.39206L6.74627 9.89664L6.7469 9.89772L7.60964 9.39206ZM7.68351 8.92896L6.91993 8.28326L6.91993 8.28326L7.68351 8.92896ZM7.71879 8.88666L8.49576 9.5162L8.49617 9.51569L7.71879 8.88666ZM8.34079 8.03963L7.44716 7.59083L7.44713 7.5909L8.34079 8.03963ZM8.31995 7.60578L7.42588 8.05372L7.42651 8.05498L8.31995 7.60578ZM7.82629 6.42729L6.9019 6.80875L7.82629 6.42729ZM7.55296 5.76703L8.47561 5.38139L8.47535 5.38076L7.55296 5.76703ZM7.04858 5.34265L7.04259 4.34267H7.04259L7.04858 5.34265ZM6.99303 5.342L6.9433 6.34076L6.94381 6.34079L6.99303 5.342ZM5.85257 5.64325L6.58861 6.32019L6.58864 6.32015L5.85257 5.64325ZM5.8038 5.69543L5.07572 5.00994L5.07571 5.00994L5.8038 5.69543ZM5.99558 10.2677L5.19662 10.8691L5.19663 10.8691L5.99558 10.2677ZM5.9978 10.2707L6.79695 9.66956L6.79676 9.6693L5.9978 10.2707ZM6.0413 10.332L5.22229 10.9058L5.22229 10.9058L6.0413 10.332ZM10.2484 14.0097L10.6435 13.0911L10.6432 13.091L10.2484 14.0097ZM11.6669 14.5314L11.9684 13.578L11.968 13.5778L11.6669 14.5314ZM13.2341 14.6296L13.3811 15.6187L13.3813 15.6187L13.2341 14.6296ZM14.9136 13.4521L15.8549 13.7898L15.855 13.7894L14.9136 13.4521ZM15.0586 12.2745L14.2015 12.7895L14.2022 12.7907L15.0586 12.2745ZM14.7186 12.0519L14.2851 12.9531L14.2851 12.9531L14.7186 12.0519ZM17.7919 2.19811C15.7238 0.137538 12.9695 -0.998798 10.0422 -1L10.0414 1C12.4416 1.00099 14.6881 1.9289 16.3802 3.61489L17.7919 2.19811ZM21 9.91815C21.0012 7.00326 19.86 4.25852 17.7918 2.19807L16.3803 3.61493C18.0725 5.30085 19.001 7.5358 19 9.91729L21 9.91815ZM10.042 20.8281C16.0782 20.8281 20.9977 15.9388 21 9.9181L19 9.91734C18.9981 14.8254 14.9823 18.8281 10.042 18.8281V20.8281ZM10.0378 20.8281H10.042V18.8281H10.0378V20.8281ZM4.80193 19.5007C6.4034 20.3701 8.20498 20.8276 10.0375 20.8281L10.0381 18.8281C8.53752 18.8277 7.06387 18.4529 5.75616 17.743L4.80193 19.5007ZM0.252601 20.9676L5.53165 19.5894L5.02644 17.6542L-0.252601 19.0324L0.252601 20.9676ZM0.448547 14.5993L-0.964183 19.7348L0.964183 20.2652L2.37691 15.1297L0.448547 14.5993ZM-0.916475 9.90935C-0.917305 11.832 -0.412475 13.7103 0.547644 15.3661L2.27782 14.3629C1.49497 13.0128 1.08285 11.481 1.08352 9.91021L-0.916475 9.90935ZM10.0418 -1C4.005 -1 -0.914053 3.88896 -0.916475 9.90938L1.08352 9.91018C1.0855 5.00242 5.10083 1 10.0418 1V-1ZM12.5406 12.1197C12.5353 12.1178 12.553 12.1244 12.6072 12.1483C12.655 12.1693 12.7162 12.1971 12.7885 12.2306C12.9329 12.2974 13.1101 12.3815 13.291 12.4684C13.6528 12.6422 14.0164 12.8208 14.1357 12.8802L15.028 11.0903C14.8985 11.0258 14.526 10.8429 14.157 10.6656C13.8194 10.5034 13.3966 10.3027 13.2225 10.2396L12.5406 12.1197ZM13.1532 11.8595C13.1466 11.8693 13.1066 11.9272 13.0206 11.9874C12.9251 12.0542 12.81 12.0978 12.6918 12.1113C12.5861 12.1233 12.5123 12.1074 12.496 12.1036C12.483 12.1006 12.4877 12.1005 12.5406 12.1197L13.2225 10.2396C13.1379 10.2089 12.8237 10.0832 12.465 10.1242C11.9964 10.1777 11.6817 10.4619 11.4906 10.7478L13.1532 11.8595ZM12.2849 12.9348C12.4192 12.7821 12.9432 12.173 13.1528 11.8601L11.491 10.7472C11.4404 10.8228 11.3115 10.987 11.1496 11.1826C10.9979 11.366 10.8489 11.5392 10.783 11.6141L12.2849 12.9348ZM10.5489 13.2316C10.7391 13.3264 11.0503 13.4519 11.4233 13.4067C11.8373 13.3567 12.1167 13.1262 12.2852 12.9345L10.7826 11.6145C10.8059 11.588 10.9402 11.4506 11.1832 11.4212C11.3852 11.3968 11.4994 11.4707 11.4408 11.4414L10.5489 13.2316ZM10.4343 13.181C10.4697 13.1963 10.4955 13.2075 10.5173 13.2172C10.5278 13.2218 10.5355 13.2253 10.5413 13.228C10.5471 13.2307 10.5494 13.2318 10.5491 13.2317L11.4406 11.4413C11.3698 11.4061 11.2847 11.3697 11.2269 11.3448L10.4343 13.181ZM8.33 11.8553C9.2438 12.6664 10.0496 13.015 10.4343 13.181L11.2269 11.3448C10.9111 11.2085 10.3345 10.9603 9.65765 10.3595L8.33 11.8553ZM6.7469 9.89772C6.90863 10.1737 7.47145 11.0931 8.32993 11.8552L9.65772 10.3595C9.03694 9.80844 8.6011 9.10603 8.47237 8.88641L6.7469 9.89772ZM6.91993 8.28326C6.89751 8.30977 6.69448 8.52722 6.60209 8.83417C6.48376 9.22725 6.57265 9.59956 6.74627 9.89664L8.47301 8.88749C8.48846 8.91393 8.52289 8.98143 8.53942 9.08445C8.55709 9.19451 8.54824 9.30753 8.5172 9.41066C8.48866 9.50548 8.4488 9.56706 8.43413 9.58836C8.42315 9.60429 8.41567 9.61183 8.4471 9.57467L6.91993 8.28326ZM6.94182 8.25712C6.93802 8.2618 6.93298 8.26782 6.91993 8.28326L8.44709 9.57467C8.4578 9.56202 8.47651 9.53994 8.49576 9.5162L6.94182 8.25712ZM7.44713 7.5909C7.45478 7.57565 7.44997 7.58735 7.41692 7.63644C7.38778 7.67974 7.34805 7.73539 7.298 7.80252C7.19796 7.9367 7.07257 8.09553 6.94141 8.25763L8.49617 9.51569C8.63436 9.34491 8.77851 9.1628 8.9014 8.99797C9.00919 8.8534 9.14839 8.65978 9.23446 8.48835L7.44713 7.5909ZM7.42651 8.05498C7.43065 8.06321 7.40082 8.00883 7.39064 7.91446C7.37858 7.80271 7.39922 7.6863 7.44716 7.59083L9.23443 8.48842C9.52338 7.91306 9.33826 7.40497 9.21338 7.15658L7.42651 8.05498ZM6.9019 6.80875C7.10133 7.29202 7.36251 7.92724 7.42588 8.05372L9.21401 7.15784C9.22044 7.17067 9.21122 7.1517 9.17519 7.06725C9.14535 6.99731 9.10631 6.90433 9.06095 6.79553C8.97039 6.57826 8.85813 6.30623 8.75068 6.04584L6.9019 6.80875ZM6.63031 6.15268C6.69749 6.3134 6.7962 6.55259 6.9019 6.80875L8.75068 6.04584C8.64576 5.79159 8.54497 5.54732 8.47561 5.38139L6.63031 6.15268ZM7.05457 6.34264C7.12988 6.34218 6.94472 6.35788 6.76263 6.24538C6.59706 6.14309 6.58027 6.03318 6.63058 6.1533L8.47535 5.38076C8.34712 5.07455 8.15067 4.75202 7.81383 4.54391C7.46045 4.32559 7.11236 4.34225 7.04259 4.34267L7.05457 6.34264ZM6.94381 6.34079C6.99416 6.34327 7.04102 6.34272 7.05458 6.34264L7.04259 4.34267C7.03751 4.3427 7.0344 4.34272 7.0316 4.34273C7.02898 4.34273 7.02785 4.34273 7.02762 4.34273C7.02684 4.34272 7.03263 4.34274 7.04226 4.34321L6.94381 6.34079ZM6.51616 6.33331C6.67984 6.33331 6.82478 6.33486 6.9433 6.34076L7.04276 4.34324C6.87134 4.3347 6.68437 4.33331 6.51616 4.33331V6.33331ZM6.58864 6.32015C6.59283 6.31561 6.59374 6.31557 6.59074 6.31761C6.58796 6.31949 6.58363 6.32193 6.57785 6.32424C6.57237 6.32642 6.5656 6.32848 6.55698 6.33008C6.54885 6.33159 6.53574 6.33331 6.51616 6.33331V4.33331C6.1227 4.33331 5.56662 4.47688 5.1165 4.96635L6.58864 6.32015ZM6.53188 6.38092C6.54862 6.36314 6.56924 6.34125 6.58861 6.32019L5.11654 4.96631C5.10662 4.97709 5.09454 4.98994 5.07572 5.00994L6.53188 6.38092ZM5.98184 7.70906C5.98184 6.95879 6.32456 6.60112 6.53188 6.38091L5.07571 5.00994C4.76475 5.34022 3.98184 6.17812 3.98184 7.70906H5.98184ZM6.79455 9.66636C6.73991 9.59377 6.52777 9.31198 6.33059 8.92391C6.12635 8.52196 5.98184 8.09002 5.98184 7.70906H3.98184C3.98184 8.53998 4.27802 9.29944 4.54756 9.8299C4.82415 10.3742 5.11888 10.7658 5.19662 10.8691L6.79455 9.66636ZM6.79676 9.6693L6.79454 9.66635L5.19663 10.8691L5.19885 10.8721L6.79676 9.6693ZM6.86032 9.75821C6.84594 9.7377 6.81814 9.69773 6.79695 9.66956L5.19865 10.8718C5.19494 10.8669 5.19296 10.8641 5.19377 10.8652C5.19428 10.8659 5.19569 10.8679 5.1984 10.8717C5.20405 10.8797 5.21142 10.8902 5.22229 10.9058L6.86032 9.75821ZM10.6432 13.091C8.59757 12.2119 7.16106 10.1875 6.86031 9.75821L5.22229 10.9058C5.51684 11.3262 7.23353 13.8026 9.85356 14.9285L10.6432 13.091ZM11.968 13.5778C11.6211 13.4683 11.1933 13.3276 10.6435 13.0911L9.8532 14.9283C10.4907 15.2026 10.9898 15.3663 11.3658 15.485L11.968 13.5778ZM13.087 13.6404C12.741 13.6919 12.3662 13.7037 11.9684 13.578L11.3654 15.4849C12.1598 15.7361 12.8696 15.6947 13.3811 15.6187L13.087 13.6404ZM13.9724 13.1144C13.9863 13.0755 13.9885 13.0971 13.9181 13.1687C13.8533 13.2345 13.7577 13.3113 13.6375 13.388C13.519 13.4636 13.3941 13.5279 13.2827 13.5745C13.2276 13.5976 13.1804 13.6144 13.1432 13.6258C13.1043 13.6377 13.0859 13.6406 13.0869 13.6405L13.3813 15.6187C13.8069 15.5553 14.3091 15.3318 14.7131 15.0741C15.0925 14.8321 15.6346 14.4038 15.8549 13.7898L13.9724 13.1144ZM14.2022 12.7907C14.1626 12.725 14.1399 12.6686 14.1277 12.6345C14.1148 12.5984 14.1075 12.5695 14.1034 12.5517C14.0992 12.5331 14.097 12.5194 14.096 12.5119C14.0949 12.5041 14.0945 12.4998 14.0945 12.4994C14.0945 12.4991 14.0951 12.5079 14.0949 12.5264C14.0946 12.5445 14.0936 12.5687 14.091 12.5988C14.0802 12.7235 14.0465 12.9076 13.9723 13.1147L15.855 13.7894C15.9881 13.4181 16.0581 13.0651 16.0835 12.7714C16.0961 12.6257 16.0991 12.4793 16.0883 12.3421C16.0818 12.2599 16.0614 12.0011 15.915 11.7582L14.2022 12.7907ZM14.2851 12.9531C14.3307 12.975 14.3607 12.9895 14.3858 13.0022C14.4108 13.0149 14.4172 13.0189 14.414 13.017C14.4112 13.0152 14.384 12.9988 14.3473 12.9663C14.3089 12.9325 14.2528 12.8749 14.2015 12.7895L15.9157 11.7594C15.7673 11.5124 15.563 11.3751 15.4557 11.3096C15.3467 11.2432 15.2231 11.1849 15.152 11.1507L14.2851 12.9531ZM14.1356 12.8802C14.1917 12.9082 14.2434 12.933 14.2851 12.9531L15.152 11.1507C15.1092 11.1301 15.0696 11.1111 15.0281 11.0904L14.1356 12.8802Z" fill="#222222" mask="url(#path-1-inside-1_101_1329)"/>
</svg>
